<svg width="20" height="20" viewBox="0 0 20 20" fill="none" xmlns="http://www.w3.org/2000/svg">
<path d="M10 0.242188C8.68678 0.242187 7.38642 0.500845 6.17317 1.00339C4.95991 1.50594 3.85752 2.24253 2.92893 3.17112C1.05357 5.04648 0 7.59002 0 10.2422C0 14.6622 2.87 18.4122 6.84 19.7422C7.34 19.8222 7.5 19.5122 7.5 19.2422V17.5522C4.73 18.1522 4.14 16.2122 4.14 16.2122C3.68 15.0522 3.03 14.7422 3.03 14.7422C2.12 14.1222 3.1 14.1422 3.1 14.1422C4.1 14.2122 4.63 15.1722 4.63 15.1722C5.5 16.6922 6.97 16.2422 7.54 16.0022C7.63 15.3522 7.89 14.9122 8.17 14.6622C5.95 14.4122 3.62 13.5522 3.62 9.74219C3.62 8.63219 4 7.74219 4.65 7.03219C4.55 6.78219 4.2 5.74219 4.75 4.39219C4.75 4.39219 5.59 4.12219 7.5 5.41219C8.29 5.19219 9.15 5.08219 10 5.08219C10.85 5.08219 11.71 5.19219 12.5 5.41219C14.41 4.12219 15.25 4.39219 15.25 4.39219C15.8 5.74219 15.45 6.78219 15.35 7.03219C16 7.74219 16.38 8.63219 16.38 9.74219C16.38 13.5622 14.04 14.4022 11.81 14.6522C12.17 14.9622 12.5 15.5722 12.5 16.5022V19.2422C12.5 19.5122 12.66 19.8322 13.17 19.7422C17.14 18.4022 20 14.6622 20 10.2422C20 8.92897 19.7413 7.62861 19.2388 6.41535C18.7362 5.2021 17.9997 4.09971 17.0711 3.17112C16.1425 2.24253 15.0401 1.50594 13.8268 1.00339C12.6136 0.500845 11.3132 0.242188 10 0.242188Z" fill="white"/>
</svg>
